<svg width="24" height="25" viewBox="0 0 24 25" fill="none" xmlns="http://www.w3.org/2000/svg">
<path d="M21 11.6562C21.0034 12.9761 20.6951 14.2781 20.1 15.4562C19.3944 16.868 18.3098 18.0554 16.9674 18.8855C15.6251 19.7156 14.0782 20.1556 12.5 20.1562C11.1801 20.1597 9.87812 19.8513 8.7 19.2562L3 21.1562L4.9 15.4562C4.30493 14.2781 3.99656 12.9761 4 11.6562C4.00061 10.078 4.44061 8.5311 5.27072 7.1888C6.10083 5.8465 7.28825 4.76182 8.7 4.05625C9.87812 3.46118 11.1801 3.15281 12.5 3.15625H13C15.0843 3.27124 17.053 4.15101 18.5291 5.62711C20.0052 7.1032 20.885 9.0719 21 11.1562V11.6562Z" stroke="black" stroke-width="2" stroke-linecap="round" stroke-linejoin="round"/>
</svg>
