<svg width="18" height="19" viewBox="0 0 18 19" fill="none" xmlns="http://www.w3.org/2000/svg">
<g clip-path="url(#clip0_4_314)">
<path d="M6.75 16.6562C7.16421 16.6562 7.5 16.3205 7.5 15.9062C7.5 15.492 7.16421 15.1562 6.75 15.1562C6.33579 15.1562 6 15.492 6 15.9062C6 16.3205 6.33579 16.6562 6.75 16.6562Z" stroke="white" stroke-width="2" stroke-linecap="round" stroke-linejoin="round"/>
<path d="M15 16.6562C15.4142 16.6562 15.75 16.3205 15.75 15.9062C15.75 15.492 15.4142 15.1562 15 15.1562C14.5858 15.1562 14.25 15.492 14.25 15.9062C14.25 16.3205 14.5858 16.6562 15 16.6562Z" stroke="white" stroke-width="2" stroke-linecap="round" stroke-linejoin="round"/>
<path d="M0.75 0.90625H3.75L5.76 10.9488C5.82858 11.294 6.01643 11.6042 6.29066 11.825C6.56489 12.0457 6.90802 12.163 7.26 12.1562H14.55C14.902 12.163 15.2451 12.0457 15.5193 11.825C15.7936 11.6042 15.9814 11.294 16.05 10.9488L17.25 4.65625H4.5" stroke="white" stroke-width="2" stroke-linecap="round" stroke-linejoin="round"/>
</g>
<defs>
<clipPath id="clip0_4_314">
<rect width="18" height="18" fill="white" transform="translate(0 0.15625)"/>
</clipPath>
</defs>
</svg>
