<svg width="24" height="25" viewBox="0 0 24 25" fill="none" xmlns="http://www.w3.org/2000/svg">
<path d="M18 8.15625C18 6.56495 17.3679 5.03883 16.2426 3.91361C15.1174 2.78839 13.5913 2.15625 12 2.15625C10.4087 2.15625 8.88258 2.78839 7.75736 3.91361C6.63214 5.03883 6 6.56495 6 8.15625C6 15.1562 3 17.1562 3 17.1562H21C21 17.1562 18 15.1562 18 8.15625Z" stroke="black" stroke-width="2" stroke-linecap="round" stroke-linejoin="round"/>
<path d="M13.73 21.1562C13.5542 21.4593 13.3018 21.7109 12.9982 21.8858C12.6946 22.0607 12.3504 22.1527 12 22.1527C11.6496 22.1527 11.3054 22.0607 11.0018 21.8858C10.6981 21.7109 10.4458 21.4593 10.27 21.1562" stroke="black" stroke-width="2" stroke-linecap="round" stroke-linejoin="round"/>
</svg>
